<svg xmlns="http://www.w3.org/2000/svg" role="img" viewBox="18.37 19.62 384.02 63.52"><path fill="#FF00BF" d="M357 56.1161c0 .3776-.177.7288-.487.9396-1.203.8429-2.504 0-2.504-1.1503V43.9897h-8.957v14.8924c0 4.1094 3.345 7.4461 7.47 7.4461 1.779 0 3.505-.6322 4.85-1.7913-.142 1.0976-.752 2.0109-1.761 2.6431-.947.5883-2.186.9044-3.576.9044-1.434 0-2.885-.3337-4.213-.9747 0 0-.239-.1141-.531-.281v7.9379c1.991.8079 4.178 1.2294 6.293 1.2294 3.345 0 6.399-1.045 8.603-2.9416 2.469-2.125 3.77-5.2334 3.77-8.9741V43.9722H357v12.1439zm-14.188 2.7747V35.0596h-8.957v22.3473c0 6.1378 4.063 8.9389 7.842 8.9389 1.124 0 2.257-.2547 3.266-.7288.151-.0703.39-.2195.39-.2195s-.231-.2371-.319-.3425c-1.434-1.6245-2.213-3.7407-2.213-6.1554m52.255-5.9709v-8.9389h-3.195c-1.336-7.0247-8.736-11.6347-16.179-8.8687-4.142 1.5454-7.505 6.4803-7.505 10.897v20.3014h.389c2.31-.0966 4.461-1.0713 6.072-2.7397 1.61-1.6771 2.496-3.8723 2.496-6.1905h3.735v-8.9389h-3.735v-2.4586c0-.9571.504-1.844 1.345-2.3094 2.292-1.2732 4.629.36 4.629 2.5289v8.1926c0 3.2401 1.23 6.2519 3.452 8.4735 2.133 2.1249 5.009 3.3455 8.107 3.4421h.38v-8.9302c-1.672 0-2.982-1.3522-2.982-2.9767v-1.4927h2.982l.009.0088z"/><path fill="#343D72" d="M214.21 55.4108c0 3.6849-2.559 6.0646-5.663 6.0646-1.615 0-3.194-.6926-3.952-2.0067v6.4109h-2.391V49.6214h2.391v1.7314c.758-1.3141 2.417-2.0333 3.952-2.0333 3.078 0 5.663 2.3974 5.663 6.0913zm-2.417.0266c0-2.1755-1.562-3.8093-3.538-3.8093-1.975 0-3.634 1.4829-3.634 3.8093 0 2.3264 1.879 3.7382 3.634 3.7382 1.976 0 3.538-1.5627 3.538-3.7382zm3.907-.0799c0-3.6583 2.735-6.038 5.981-6.038s6.007 2.3797 6.007 6.038-2.761 6.109-6.007 6.109c-3.246 0-5.981-2.4507-5.981-6.109zm9.589 0c0-2.2021-1.659-3.7649-3.608-3.7649s-3.59 1.5628-3.59 3.7649c0 2.2021 1.632 3.8359 3.59 3.8359s3.608-1.5805 3.608-3.8359zm18.62-5.736h2.585l-4.173 11.5611h-2.028l-2.955-8.2935-2.858 8.2935h-1.976l-4.322-11.5611h2.584l2.735 7.8938 2.708-7.8938h2.24l2.735 7.8938 2.708-7.8938h.017zm14.749 6.7571h-9.077c.318 1.8825 1.685 2.8414 3.511 2.8414 1.341 0 2.584-.5416 3.219-1.6338l1.906.9856c-.997 1.9091-3.052 2.8947-5.222 2.8947-3.29 0-5.884-2.4507-5.884-6.109s2.638-6.038 5.884-6.038c3.246 0 5.707 2.3796 5.707 6.0113 0 .3197-.027.666-.053 1.0389l.009.0089zm-2.347-1.9535c-.247-1.8025-1.534-2.8414-3.29-2.8414-1.755 0-3.078.9146-3.413 2.8414h6.712-.009zm12.155-4.6794l-.414 2.2997c-.635-.293-1.217-.3995-1.685-.3995-2.073 0-3.052 2.2553-3.052 5.372v4.1556h-2.417v-11.561h2.417v2.6017c.582-2.0334 1.729-2.8947 3.193-2.8947.785 0 1.588.1953 1.95.4173l.008.0089zm11.838 6.6329h-9.077c.318 1.8825 1.685 2.8414 3.511 2.8414 1.341 0 2.585-.5416 3.22-1.6338l1.905.9856c-.997 1.9091-3.052 2.8947-5.222 2.8947-3.29 0-5.883-2.4507-5.883-6.109s2.637-6.038 5.883-6.038 5.707 2.3796 5.707 6.0113c0 .3197-.026.666-.053 1.0389l.009.0089zm-2.346-1.9535c-.247-1.8025-1.535-2.8414-3.29-2.8414-1.756 0-3.079.9146-3.414 2.8414h6.713-.009zm13.478-11.0637h2.391v17.821h-2.391V59.451c-.758 1.3141-2.39 2.0333-3.925 2.0333-3.096 0-5.663-2.424-5.663-6.0913 0-3.6672 2.558-6.0646 5.636-6.0646 1.615 0 3.194.6926 3.952 2.0067v-7.9737zm-.026 12.005c0-2.3264-1.879-3.7383-3.635-3.7383-1.949 0-3.537 1.5628-3.537 3.7383 0 2.1755 1.588 3.8093 3.537 3.8093 1.95 0 3.635-1.4829 3.635-3.8093zm22.775.0178c0 3.6583-2.584 6.0913-5.663 6.0913-1.535 0-3.193-.7193-3.952-2.0334v1.7314h-2.39v-17.821h2.39v7.9649c.759-1.3142 2.347-2.0068 3.952-2.0068 3.096 0 5.663 2.3797 5.663 6.0647v.0089zm-2.417-.0267c0-2.1754-1.561-3.7382-3.537-3.7382-1.755 0-3.634 1.4118-3.634 3.7382s1.729 3.8093 3.634 3.8093c1.905 0 3.537-1.6605 3.537-3.8093zm12.032-5.736h2.584l-6.712 16.2583h-2.541l2.073-5.1945-4.543-11.0638h2.585l3.272 8.0448 3.273-8.0448h.009z"/><path fill="#DD3239" d="M89.1949 37.819c-4.6953-6.665-12.494-10.6407-20.425-10.6407-7.931 0-15.7296 3.9757-20.4129 10.6407l-.2405.3416h5.9101l.0642-.0683c4.0256-4.1646 9.2782-6.3635 14.6791-6.3635 5.401 0 10.6576 2.1989 14.6872 6.3635l.0642.0683h5.9101l-.2365-.3416z"/><path fill="#343D72" d="M45.0935 59.6993l-.1122.1126c-1.8204 1.8531-3.9174 2.838-6.0826 2.838-4.5189 0-7.7987-3.3968-7.7987-8.088 0-4.6912 3.2798-8.08 7.7987-8.08 2.1652 0 4.2662.9849 6.0826 2.8421l.1122.1166 2.907-3.5255-.0802-.0965c-2.4138-2.8661-5.3167-4.257-8.8813-4.257-3.5645 0-6.8444 1.206-9.202 3.3847-2.5622 2.3517-3.9134 5.6761-3.9134 9.6116 0 3.9354 1.3512 7.2679 3.9134 9.6276 2.3576 2.1868 5.6295 3.3847 9.202 3.3847 3.5726 0 6.4675-1.3908 8.8813-4.253l.0802-.0924-2.907-3.5295m5.846 7.3967h5.1323V41.9637h-5.1323V67.092zm25.2443-5.4674c-1.3673.8361-2.6423 1.2582-3.7891 1.2582-1.6559 0-2.4097-.8763-2.4097-2.834V46.7229h5.2285v-4.7354H69.985v-7.8187l-5.0321 2.7013v5.1214h-4.3384v4.7354h4.3384v14.1822c0 3.8631 2.2815 6.5001 5.6936 6.5725 2.3136.0442 3.7089-.6472 4.559-1.1537l.0521-.0362 1.235-4.848-.3048.1849m4.2504 5.4634h5.1403V41.9637h-5.1403V67.092z"/><path fill="#3D99CE" d="M129.556 67.0918c.373 0 .674-.3256.674-.7276V42.6428c0-.3859-.293-.6793-.674-.6793h-5.309c-.401 0-.725.3055-.725.6793v23.7214c0 .3899.34.7276.725.7276h5.309zm-2.65-36.6654c2.41 0 4.366 1.9657 4.366 4.3817 0 2.4159-1.956 4.3776-4.366 4.3776-2.41 0-4.375-1.9617-4.375-4.3776 0-2.416 1.961-4.3817 4.375-4.3817zm13.72 35.9861c0 .3859-.292.6793-.673.6793h-5.309c-.401 0-.726-.3055-.726-.6793V32.8102c0-.3738.325-.6793.726-.6793h5.309c.385 0 .673.2894.673.6793v33.6023z"/><path fill="#3D99CE" d="M148.601 67.0919c-.665 0-.998-.0201-1.291-.4784l-7.257-11.8024 7.49-12.2646c.313-.4865.726-.5789 1.343-.5789h4.956c.497 0 .577.2774.577.4301 0 .2332-.132.4663-.364.8281l-7.338 10.9663 7.895 11.7581c.26.3779.353.5548.353.7116 0 .1487-.032.4301-.582.4301h-5.786"/><path fill="#3D99CE" d="M153.549 54.7347c0-7.3363 5.012-13.1852 12.053-13.1852 7.041 0 11.4 6.2469 11.4 12.2445v1.2382c0 .8562-.421.9728-.874.9728h-16.035c.217 3.3646 2.598 5.7605 5.738 5.7605 2.021 0 3.825-1.0613 5.228-2.8501.281-.3297.582-.7517.963-.7517.148 0 .393.0442.593.1768l3.436 2.1949c.337.1929.538.414.538.6753 0 .1568-.081.3457-.205.595-1.953 3.7063-6.098 5.7605-10.653 5.7605-7.494 0-12.186-5.7002-12.186-12.8395l.004.008zm6.58-3.039h11.187c-.477-3.1878-2.999-4.9445-5.589-4.9445-2.591 0-5.125 1.7567-5.598 4.9445zm-52.133 9.9009c-3.328 0-6.034-3.1274-6.034-6.9745 0-3.847 2.706-6.9745 6.034-6.9745s6.034 3.1235 6.034 6.9745c0 3.8511-2.706 6.9745-6.034 6.9745zm.593-20.0471c-2.754 0-5.136.8763-6.471 2.2752V32.8102c0-.406-.349-.6793-.678-.6793h-5.2563c-.3889 0-.6776.2894-.6776.6793v33.6023c0 .3859.2887.6793.6776.6793h5.2523c.389 0 .678-.2934.678-.6793v-.9568c1.411 1.5598 4.242 2.1185 6.423 2.1185 6.516 0 12.23-5.0047 12.23-13.0847s-5.714-12.94-12.182-12.94m75.574 20.8431h.497c.589 0 1.063-.1889 1.063-.6673 0-.4221-.305-.6995-.971-.6995-.285 0-.477.0322-.589.0563v1.3145-.004zm-.028 2.6009h-1.059v-4.5747c.417-.0884 1.003-.1407 1.756-.1407.862 0 1.247.1407 1.584.3337.253.197.445.5588.445 1.005 0 .5025-.393.8964-.946 1.0612v.0563c.445.1688.698.5025.834 1.1135.14.6995.22.9768.337 1.1497h-1.143c-.14-.1688-.224-.5909-.365-1.1215-.08-.5025-.361-.7236-.942-.7236h-.501v1.8451-.004zm-2.811-2.4039c0 2.0421 1.508 3.6541 3.565 3.6541 2.056 0 3.476-1.616 3.476-3.626 0-2.0099-1.476-3.6822-3.509-3.6822-2.032 0-3.532 1.6482-3.532 3.6501v.004zm8.212 0c0 2.5968-2.029 4.6309-4.68 4.6309-2.65 0-4.703-2.0341-4.703-4.6309 0-2.5969 2.093-4.5746 4.703-4.5746 2.611 0 4.68 2.038 4.68 4.5746z"/></svg>